<?xml version="1.0" encoding="UTF-8"?>
<svg width="163px" height="52px" viewBox="0 0 163 52" version="1.1" xmlns="http://www.w3.org/2000/svg" xmlns:xlink="http://www.w3.org/1999/xlink">
    <!-- Generator: Sketch 52.1 (67048) - http://www.bohemiancoding.com/sketch -->
    <title>Logo</title>
    <desc>Created with Sketch.</desc>
    <g id="Page-1" stroke="none" stroke-width="1" fill="none" fill-rule="evenodd">
        <g id="vizitka_v_F20" transform="translate(-143.000000, -99.000000)" fill="#333333">
            <g id="Group" transform="translate(143.000000, 98.000000)">
                <g id="icon" transform="translate(0.000000, 1.000000)" fill-rule="nonzero">
                    <path d="M25.232,10.536 C26.1600046,10.536 27.127995,10.8239971 28.136,11.4 C29.144005,11.9760029 29.9679968,12.7279954 30.608,13.656 L27.344,15.432 C27.0559986,14.5039954 26.616003,13.7280031 26.024,13.104 C25.431997,12.4799969 24.7200042,12.168 23.888,12.168 C22.7679944,12.168 21.9920022,12.5919958 21.56,13.44 C21.1279978,14.2880042 20.912,15.2879942 20.912,16.44 L20.912,26.568 L27.584,26.568 L26.528,28.92 L20.912,28.92 L20.912,49.896 L16.736,51.672 L16.736,28.92 L6.848,28.92 L6.848,49.896 L2.624,51.672 L2.624,28.92 L0.272,28.92 L1.232,26.568 L2.624,26.568 L2.624,21.48 C2.624,18.5039851 3.35999264,15.9360108 4.832,13.776 C6.30400736,11.6159892 8.60798432,10.536 11.744,10.536 C12.8320054,10.536 13.9839939,10.839997 15.2,11.448 C16.4160061,12.056003 17.5359949,12.8879947 18.56,13.944 C20.0960077,11.6719886 22.3199854,10.536 25.232,10.536 Z M10.88,12.168 C8.19198656,12.168 6.848,13.863983 6.848,17.256 L6.848,26.568 L16.736,26.568 L16.736,21.48 C16.736,20.2319938 16.8639987,19.0960051 17.12,18.072 C16.5439971,16.279991 15.7440051,14.8480054 14.72,13.776 C13.6959949,12.7039946 12.4160077,12.168 10.88,12.168 Z M50.48,32.328 C50.48,34.2800098 49.8560062,36.2959896 48.608,38.376 C47.3599938,40.4560104 45.8160092,42.1759932 43.976,43.536 C42.1359908,44.8960068 40.4000082,45.576 38.768,45.576 C36.1439869,45.576 34.0880074,44.6880089 32.6,42.912 C31.1119926,41.1359911 30.368,38.8720138 30.368,36.12 L30.368,2.472 L34.736,0.648 L34.736,37.176 C34.736,38.7120077 35.1999954,40.0559942 36.128,41.208 C37.0560046,42.3600058 38.3679915,42.936 40.064,42.936 C41.472007,42.936 42.6959948,42.536004 43.736,41.736 C44.7760052,40.935996 45.5599974,39.9520058 46.088,38.784 C46.6160026,37.6159942 46.88,36.5040053 46.88,35.448 C46.88,33.847992 46.4640042,32.2000085 45.632,30.504 C44.7999958,28.8079915 43.7200066,27.4160054 42.392,26.328 C41.0639934,25.2399946 39.6800072,24.696 38.24,24.696 L42.512,21.144 C43.8880069,21.5920022 45.1919938,22.4479937 46.424,23.712 C47.6560062,24.9760063 48.6399963,26.3999921 49.376,27.984 C50.1120037,29.5680079 50.48,31.0159934 50.48,32.328 Z" id="ffb"></path>
                </g>
                <text id="Funny" font-family="Lato-Light, Lato" font-size="22" font-weight="300">
                    <tspan x="61" y="22">FUNNY</tspan>
                </text>
                <text id="Fotobox" font-family="Lato-Light, Lato" font-size="22" font-weight="300">
                    <tspan x="61" y="48">FOTOBOX</tspan>
                </text>
            </g>
        </g>
    </g>
</svg>